<svg width="24" height="24" viewBox="0 0 24 24" fill="none" xmlns="http://www.w3.org/2000/svg">
<path d="M2.00122 12.0612C2.00238 17.0108 5.57962 21.2253 10.4382 22.001V14.9689H7.90122V12.0612H10.4412V9.84761C10.3277 8.79873 10.6837 7.75339 11.4129 6.99509C12.142 6.23679 13.1686 5.84413 14.2142 5.9236C14.9648 5.9358 15.7134 6.00306 16.4542 6.12484V8.59897H15.1902C14.7551 8.54163 14.3176 8.68623 14.001 8.99204C13.6844 9.29786 13.523 9.73179 13.5622 10.1716V12.0612H16.3332L15.8902 14.97H13.5622V22.001C18.8167 21.1655 22.5013 16.3371 21.9467 11.0138C21.3921 5.69055 16.7925 1.73591 11.48 2.01487C6.16758 2.29382 2.00207 6.70871 2.00122 12.0612Z" fill="#F5F8FB"/>
</svg>
