<svg width="25" height="24" viewBox="0 0 25 24" fill="none" xmlns="http://www.w3.org/2000/svg">
<path fill-rule="evenodd" clip-rule="evenodd" d="M8.6944 2.82443C9.67874 2.77911 9.99258 2.76904 12.5 2.76904C15.0074 2.76904 15.3213 2.77995 16.3048 2.82443C17.2882 2.8689 17.9596 3.02583 18.547 3.25324C19.1621 3.48569 19.7201 3.84904 20.1817 4.31897C20.6516 4.77967 21.0141 5.33688 21.2457 5.95282C21.474 6.54023 21.6301 7.21156 21.6754 8.19338C21.7207 9.17939 21.7308 9.49324 21.7308 11.9998C21.7308 14.5072 21.7199 14.8211 21.6754 15.8054C21.6309 16.7872 21.474 17.4586 21.2457 18.046C21.0141 18.662 20.651 19.2201 20.1817 19.6815C19.7201 20.1514 19.1621 20.5139 18.547 20.7456C17.9596 20.9738 17.2882 21.1299 16.3064 21.1752C15.3213 21.2205 15.0074 21.2306 12.5 21.2306C9.99258 21.2306 9.67874 21.2197 8.6944 21.1752C7.71258 21.1307 7.04125 20.9738 6.45384 20.7456C5.83783 20.5139 5.27971 20.1508 4.81832 19.6815C4.34871 19.2205 3.98529 18.6627 3.75342 18.0468C3.52601 17.4594 3.36993 16.7881 3.32461 15.8062C3.2793 14.8202 3.26923 14.5064 3.26923 11.9998C3.26923 9.4924 3.28014 9.17855 3.32461 8.19506C3.36909 7.21156 3.52601 6.54023 3.75342 5.95282C3.98564 5.33694 4.34933 4.7791 4.81916 4.31813C5.27989 3.84862 5.83745 3.48522 6.453 3.25324C7.04042 3.02583 7.71174 2.86974 8.69356 2.82443H8.6944ZM16.2301 4.48597C15.2566 4.44149 14.9646 4.43226 12.5 4.43226C10.0354 4.43226 9.74335 4.44149 8.76993 4.48597C7.86951 4.52709 7.38111 4.67729 7.05552 4.80401C6.62503 4.97184 6.31706 5.17072 5.99398 5.4938C5.68773 5.79174 5.45203 6.15446 5.30419 6.55534C5.17748 6.88093 5.02727 7.36932 4.98615 8.26974C4.94167 9.24317 4.93244 9.5352 4.93244 11.9998C4.93244 14.4644 4.94167 14.7565 4.98615 15.7299C5.02727 16.6303 5.17748 17.1187 5.30419 17.4443C5.45188 17.8446 5.68769 18.2079 5.99398 18.5058C6.29188 18.8121 6.65524 19.0479 7.05552 19.1956C7.38111 19.3223 7.86951 19.4725 8.76993 19.5137C9.74335 19.5581 10.0345 19.5674 12.5 19.5674C14.9655 19.5674 15.2566 19.5581 16.2301 19.5137C17.1305 19.4725 17.6189 19.3223 17.9445 19.1956C18.375 19.0278 18.6829 18.8289 19.006 18.5058C19.3123 18.2079 19.5481 17.8446 19.6958 17.4443C19.8225 17.1187 19.9727 16.6303 20.0138 15.7299C20.0583 14.7565 20.0676 14.4644 20.0676 11.9998C20.0676 9.5352 20.0583 9.24317 20.0138 8.26974C19.9727 7.36932 19.8225 6.88093 19.6958 6.55534C19.528 6.12485 19.3291 5.81688 19.006 5.4938C18.708 5.18756 18.3453 4.95188 17.9445 4.80401C17.6189 4.67729 17.1305 4.52709 16.2301 4.48597ZM11.321 14.8454C11.9794 15.1195 12.7126 15.1565 13.3953 14.9501C14.078 14.7436 14.6679 14.3066 15.0641 13.7136C15.4604 13.1206 15.6385 12.4084 15.568 11.6986C15.4975 10.9889 15.1828 10.3257 14.6776 9.82219C14.3556 9.50035 13.9662 9.25392 13.5375 9.10064C13.1088 8.94735 12.6514 8.89102 12.1983 8.93571C11.7452 8.9804 11.3077 9.125 10.9172 9.35908C10.5267 9.59317 10.1929 9.91093 9.93997 10.2895C9.68701 10.668 9.52113 11.098 9.45428 11.5483C9.38742 11.9987 9.42124 12.4582 9.55332 12.894C9.68539 13.3297 9.91243 13.7307 10.2181 14.0681C10.5237 14.4055 10.9004 14.671 11.321 14.8454ZM9.14503 8.64485C9.58561 8.20427 10.1087 7.85478 10.6843 7.61634C11.2599 7.3779 11.8769 7.25518 12.5 7.25518C13.1231 7.25518 13.74 7.3779 14.3157 7.61634C14.8913 7.85478 15.4144 8.20427 15.855 8.64485C16.2955 9.08543 16.645 9.60847 16.8835 10.1841C17.1219 10.7598 17.2446 11.3767 17.2446 11.9998C17.2446 12.6229 17.1219 13.2399 16.8835 13.8155C16.645 14.3912 16.2955 14.9142 15.855 15.3548C14.9652 16.2446 13.7584 16.7445 12.5 16.7445C11.2416 16.7445 10.0348 16.2446 9.14503 15.3548C8.25524 14.465 7.75536 13.2582 7.75536 11.9998C7.75536 10.7415 8.25524 9.53464 9.14503 8.64485ZM18.2969 7.96177C18.4061 7.85878 18.4935 7.73493 18.554 7.59755C18.6144 7.46018 18.6467 7.31207 18.6489 7.16199C18.6511 7.01192 18.6231 6.86293 18.5667 6.72385C18.5103 6.58477 18.4265 6.45842 18.3204 6.35229C18.2143 6.24616 18.0879 6.16241 17.9488 6.10598C17.8097 6.04956 17.6608 6.02161 17.5107 6.0238C17.3606 6.02599 17.2125 6.05826 17.0751 6.11872C16.9377 6.17917 16.8139 6.26658 16.7109 6.37576C16.5106 6.58809 16.4009 6.87012 16.4052 7.16199C16.4095 7.45386 16.5273 7.73258 16.7337 7.93898C16.9401 8.14539 17.2188 8.26322 17.5107 8.26748C17.8026 8.27173 18.0846 8.16207 18.2969 7.96177Z" fill="#F5F8FB"/>
</svg>
