<svg width="24" height="24" viewBox="0 0 24 24" fill="none" xmlns="http://www.w3.org/2000/svg">
<path d="M19.8642 2.76904H4.13221C3.3786 2.76904 2.76923 3.364 2.76923 4.09957V19.8965C2.76923 20.632 3.3786 21.2306 4.13221 21.2306H19.8642C20.6178 21.2306 21.2308 20.632 21.2308 19.9001V4.09957C21.2308 3.364 20.6178 2.76904 19.8642 2.76904ZM8.24639 18.501H5.50601V9.68851H8.24639V18.501ZM6.8762 8.48779C5.99639 8.48779 5.28605 7.77746 5.28605 6.90126C5.28605 6.02505 5.99639 5.31472 6.8762 5.31472C7.7524 5.31472 8.46274 6.02505 8.46274 6.90126C8.46274 7.77385 7.7524 8.48779 6.8762 8.48779ZM18.5012 18.501H15.7644V14.2174C15.7644 13.1969 15.7464 11.8808 14.3401 11.8808C12.9159 11.8808 12.6995 12.995 12.6995 14.1452V18.501H9.96634V9.68851H12.5913V10.8928H12.6274C12.9916 10.2005 13.8858 9.46856 15.2163 9.46856C17.9892 9.46856 18.5012 11.2931 18.5012 13.6657V18.501Z" fill="#F5F8FB"/>
</svg>
