<svg width="24" height="24" viewBox="0 0 24 24" fill="none" xmlns="http://www.w3.org/2000/svg">
<path d="M23.5468 2.42273C23.1374 2.11452 22.4944 2.07042 21.8295 2.30739H21.8285C21.1292 2.55649 2.03537 9.82768 1.25808 10.1247C1.11671 10.1684 -0.118008 10.5774 0.00917513 11.4885C0.122712 12.3099 1.11507 12.6501 1.23625 12.6893L6.0905 14.165C6.41255 15.1168 7.59977 18.6283 7.86233 19.3785C8.02608 19.8462 8.293 20.4607 8.7608 20.5871C9.17128 20.7277 9.57957 20.5993 9.84376 20.4151L12.8116 17.9712L17.6025 21.2884L17.7166 21.349C18.0419 21.4769 18.3536 21.5409 18.6511 21.5409C18.8809 21.5409 19.1014 21.5026 19.3121 21.426C20.0299 21.1643 20.317 20.5571 20.347 20.4883L23.9256 3.97399C24.144 3.09199 23.8405 2.64323 23.5468 2.42273ZM10.3716 14.7553L8.73405 18.6322L7.0965 13.786L19.6511 5.54754L10.3716 14.7553Z" fill="#F5F8FB"/>
</svg>
