<svg width="24" height="24" viewBox="0 0 24 24" fill="none" xmlns="http://www.w3.org/2000/svg">
<path d="M19.644 6.18005C20.5011 5.64387 21.1424 4.7996 21.4482 3.80486C20.6428 4.30492 19.7616 4.65717 18.8428 4.84639C17.5688 3.43621 15.5504 3.09303 13.9154 4.00862C12.2803 4.92421 11.4334 6.87189 11.8479 8.76335C8.54889 8.59003 5.47532 6.95936 3.39198 4.2771C2.30473 6.2395 2.86034 8.74812 4.6617 10.01C4.01031 9.98806 3.37336 9.80351 2.80397 9.4717C2.80397 9.48971 2.80397 9.50772 2.80397 9.52573C2.80435 11.5699 4.18113 13.3307 6.09587 13.7358C5.49167 13.9079 4.8579 13.9332 4.24292 13.8099C4.78141 15.558 6.32109 16.7556 8.07598 16.7914C6.62253 17.9851 4.82756 18.6325 2.9799 18.6293C2.6524 18.6298 2.32516 18.6101 1.99988 18.5703C3.87615 19.8319 6.05989 20.5016 8.29015 20.4992C11.393 20.5215 14.3749 19.2415 16.5689 16.9455C18.7629 14.6494 19.9859 11.529 19.9643 8.28211C19.9643 8.09601 19.9602 7.91092 19.9519 7.72683C20.7554 7.11913 21.449 6.3663 21.9999 5.50372C21.2513 5.85095 20.4572 6.07893 19.644 6.18005Z" fill="#F5F8FB"/>
</svg>
