<svg width="24" height="24" viewBox="0 0 24 24" fill="none" xmlns="http://www.w3.org/2000/svg">
<path d="M19.9511 5.77432C18.0474 4.26701 15.0358 4.01151 14.9069 4.00231C14.707 3.98577 14.5165 4.09606 14.4343 4.27804C14.4268 4.28907 14.3614 4.43796 14.2886 4.66957C15.5477 4.87913 17.0946 5.30007 18.4939 6.15482C18.7181 6.29085 18.7872 6.58128 18.6489 6.80186C18.5574 6.94708 18.4023 7.02612 18.2417 7.02612C18.1557 7.02612 18.0679 7.00222 17.9895 6.95443C15.5832 5.48573 12.5791 5.4122 12 5.4122C11.4209 5.4122 8.41491 5.48573 6.01053 6.95443C5.78635 7.0923 5.49117 7.02428 5.35292 6.8037C5.21281 6.58128 5.28193 6.29269 5.50611 6.15482C6.9054 5.30191 8.45228 4.87913 9.71145 4.67141C9.63859 4.43796 9.5732 4.29091 9.5676 4.27804C9.48353 4.09606 9.29484 3.98209 9.09307 4.00231C8.96416 4.01151 5.95262 4.26701 4.02276 5.79454C3.0158 6.71179 1 12.0719 1 16.706C1 16.7887 1.02242 16.8677 1.06352 16.9394C2.45346 19.3438 6.24779 19.9724 7.11277 20C7.11651 20 7.12211 20 7.12772 20C7.28091 20 7.42476 19.9283 7.51444 19.807L8.38876 18.6232C6.02921 18.024 4.82422 17.0056 4.7551 16.9449C4.55707 16.774 4.53838 16.4762 4.71399 16.2814C4.88774 16.0865 5.19039 16.0681 5.38842 16.2391C5.41644 16.2648 7.63587 18.1177 12 18.1177C16.3716 18.1177 18.591 16.2575 18.6135 16.2391C18.8115 16.07 19.1123 16.0865 19.2879 16.2832C19.4616 16.478 19.4429 16.774 19.2449 16.9449C19.1758 17.0056 17.9708 18.024 15.6112 18.6232L16.4856 19.807C16.5752 19.9283 16.7191 20 16.8723 20C16.8779 20 16.8835 20 16.8872 20C17.7522 19.9724 21.5465 19.3438 22.9365 16.9394C22.9776 16.8677 23 16.7887 23 16.706C23 12.0719 20.9842 6.71179 19.9511 5.77432ZM8.8913 14.8237C7.96654 14.8237 7.21739 13.9818 7.21739 12.9414C7.21739 11.901 7.96654 11.0591 8.8913 11.0591C9.81607 11.0591 10.5652 11.901 10.5652 12.9414C10.5652 13.9818 9.81607 14.8237 8.8913 14.8237ZM15.1087 14.8237C14.1839 14.8237 13.4348 13.9818 13.4348 12.9414C13.4348 11.901 14.1839 11.0591 15.1087 11.0591C16.0335 11.0591 16.7826 11.901 16.7826 12.9414C16.7826 13.9818 16.0335 14.8237 15.1087 14.8237Z" fill="#F5F8FB"/>
</svg>
