<svg width="40" height="40" viewBox="0 0 40 40" fill="none" xmlns="http://www.w3.org/2000/svg">
<path d="M31.5468 10.4227C31.1374 10.1145 30.4944 10.0704 29.8295 10.3074H29.8285C29.1292 10.5565 10.0354 17.8277 9.25808 18.1247C9.11671 18.1684 7.88199 18.5774 8.00918 19.4885C8.12271 20.3099 9.11507 20.6501 9.23625 20.6893L14.0905 22.165C14.4125 23.1168 15.5998 26.6283 15.8623 27.3785C16.0261 27.8462 16.293 28.4607 16.7608 28.5871C17.1713 28.7277 17.5796 28.5993 17.8438 28.4151L20.8116 25.9712L25.6025 29.2884L25.7166 29.349C26.0419 29.4769 26.3536 29.5409 26.6511 29.5409C26.8809 29.5409 27.1014 29.5026 27.3121 29.426C28.0299 29.1643 28.317 28.5571 28.347 28.4883L31.9256 11.974C32.144 11.092 31.8405 10.6432 31.5468 10.4227ZM18.3716 22.7553L16.734 26.6322L15.0965 21.786L27.6511 13.5475L18.3716 22.7553Z" fill="#F5F8FB"/>
</svg>
