<svg width="24" height="24" viewBox="0 0 24 24" fill="none" xmlns="http://www.w3.org/2000/svg">
<path d="M23.2522 5.92188C23.0311 4.75354 21.9775 3.90271 20.7548 3.63708C18.9252 3.26562 15.539 3 11.8753 3C8.21384 3 4.77347 3.26562 2.94164 3.63708C1.72115 3.90271 0.665406 4.69959 0.444286 5.92188C0.220998 7.25 -0.00012207 9.10938 -0.00012207 11.5C-0.00012207 13.8906 0.220998 15.75 0.498483 17.0781C0.72177 18.2465 1.77534 19.0973 2.99584 19.3629C4.93823 19.7344 8.26804 20 11.9317 20C15.5954 20 18.9252 19.7344 20.8676 19.3629C22.088 19.0973 23.1416 18.3004 23.3649 17.0781C23.586 15.75 23.8635 13.8367 23.9199 11.5C23.8071 9.10938 23.5297 7.25 23.2522 5.92188ZM8.87937 15.2188V7.78125L15.6496 11.5L8.87937 15.2188Z" fill="#F5F8FB"/>
</svg>
