<svg width="52" height="42" viewBox="0 0 52 42" fill="none" xmlns="http://www.w3.org/2000/svg">
<path d="M2.66699 9.5766L21.7185 22.9126C23.2612 23.9925 24.0326 24.5325 24.8716 24.7417C25.6127 24.9264 26.3879 24.9264 27.129 24.7417C27.9681 24.5325 28.7394 23.9925 30.2822 22.9126L49.3337 9.5766M13.867 39.9099H38.1337C42.054 39.9099 44.0142 39.9099 45.5116 39.147C46.8287 38.4759 47.8996 37.405 48.5707 36.0879C49.3337 34.5905 49.3337 32.6303 49.3337 28.7099V13.7766C49.3337 9.85623 49.3337 7.89605 48.5707 6.39867C47.8996 5.08153 46.8287 4.01067 45.5116 3.33955C44.0142 2.5766 42.054 2.5766 38.1337 2.5766H13.867C9.94662 2.5766 7.98644 2.5766 6.48906 3.33955C5.17192 4.01067 4.10106 5.08153 3.42995 6.39867C2.66699 7.89605 2.66699 9.85623 2.66699 13.7766V28.7099C2.66699 32.6303 2.66699 34.5905 3.42995 36.0879C4.10106 37.405 5.17192 38.4759 6.48906 39.147C7.98644 39.9099 9.94662 39.9099 13.867 39.9099Z" stroke="#F8F7FF" stroke-width="4" stroke-linecap="round" stroke-linejoin="round"/>
</svg>
