<svg width="56" height="57" viewBox="0 0 56 57" fill="none" xmlns="http://www.w3.org/2000/svg">
<path d="M4.66699 16.5766L23.7185 29.9126C25.2612 30.9925 26.0326 31.5325 26.8716 31.7417C27.6127 31.9264 28.3879 31.9264 29.129 31.7417C29.9681 31.5325 30.7394 30.9925 32.2822 29.9126L51.3337 16.5766M15.867 46.9099H40.1337C44.054 46.9099 46.0142 46.9099 47.5116 46.147C48.8287 45.4759 49.8996 44.405 50.5707 43.0879C51.3337 41.5905 51.3337 39.6303 51.3337 35.7099V20.7766C51.3337 16.8562 51.3337 14.896 50.5707 13.3987C49.8996 12.0815 48.8287 11.0107 47.5116 10.3396C46.0142 9.5766 44.054 9.5766 40.1337 9.5766H15.867C11.9466 9.5766 9.98644 9.5766 8.48906 10.3396C7.17192 11.0107 6.10106 12.0815 5.42995 13.3987C4.66699 14.896 4.66699 16.8562 4.66699 20.7766V35.7099C4.66699 39.6303 4.66699 41.5905 5.42995 43.0879C6.10106 44.405 7.17192 45.4759 8.48906 46.147C9.98644 46.9099 11.9466 46.9099 15.867 46.9099Z" stroke="#F8F7FF" stroke-width="4" stroke-linecap="round" stroke-linejoin="round"/>
</svg>
