<svg width="24" height="25" viewBox="0 0 24 25" fill="none" xmlns="http://www.w3.org/2000/svg">
<g clip-path="url(#clip0_4562_3654)">
<g clip-path="url(#clip1_4562_3654)">
<path d="M22.3791 13.6911V17.1863C22.3791 17.2266 22.3784 17.2669 22.376 17.3071C22.3752 17.315 22.3752 17.3237 22.3744 17.3316C22.3728 17.3553 22.3712 17.379 22.3689 17.4035C22.3665 17.4272 22.3641 17.4509 22.361 17.4746C22.3586 17.4975 22.3547 17.5204 22.3515 17.5425C22.346 17.5765 22.3404 17.6097 22.3333 17.6436C22.3294 17.665 22.3246 17.6855 22.3199 17.7068C22.3152 17.725 22.3104 17.7439 22.3057 17.7629C22.3017 17.7803 22.297 17.7969 22.2915 17.8142C22.2701 17.8909 22.2441 17.9667 22.2141 18.0409C22.2077 18.0567 22.2014 18.0733 22.1943 18.0891C22.1761 18.1326 22.1564 18.1752 22.1351 18.2171C22.1248 18.2384 22.1137 18.2589 22.1027 18.2795L22.1019 18.2787L18.1477 16.0781L11.9551 12.631L16.6122 10.4873L22.2954 13.6453L22.3791 13.6911Z" fill="url(#paint0_linear_4562_3654)"/>
<path d="M22.3082 7.16733L21.1028 8.09623L20.0357 9.77394L9.88965 4.12629L13.7451 1.41858L16.0752 2.76454H16.076L20.3461 5.22976L21.23 5.74002C21.7742 6.05439 22.1581 6.57255 22.3082 7.16733Z" fill="url(#paint1_linear_4562_3654)"/>
<path d="M16.0761 2.76504L1.40723 11.1686V7.72945C1.40723 6.90876 1.84482 6.15047 2.55492 5.74052L10.7452 1.0123C11.4553 0.602347 12.3305 0.602347 13.0414 1.0123L16.0761 2.76504Z" fill="#0265DC"/>
<path d="M22.3786 7.72929V8.9228L3.43011 19.6802L2.55492 19.1747C1.84482 18.7639 1.40723 18.0064 1.40723 17.1857V15.9946L20.347 5.2301L21.2309 5.74037C21.941 6.15031 22.3786 6.9086 22.3786 7.72929Z" fill="#0265DC"/>
<path d="M22.3796 13.5952V17.1852C22.3796 17.2255 22.3788 17.2658 22.3764 17.3061C22.3756 17.314 22.3756 17.3227 22.3748 17.3306C22.3733 17.3543 22.3717 17.378 22.3693 17.4024C22.3669 17.4261 22.3646 17.4498 22.3614 17.4735C22.359 17.4964 22.3551 17.5193 22.3519 17.5415C22.3464 17.5754 22.3409 17.6086 22.3338 17.6426C22.3298 17.6639 22.3251 17.6844 22.3203 17.7058C22.3156 17.7239 22.3109 17.7429 22.3061 17.7618C22.3022 17.7792 22.2974 17.7958 22.2919 17.8132C22.2706 17.8898 22.2445 17.9656 22.2145 18.0399C22.2082 18.0557 22.2019 18.0723 22.1947 18.0881C22.1766 18.1315 22.1568 18.1742 22.1355 18.216C22.1252 18.2373 22.1142 18.2579 22.1031 18.2784C22.0905 18.3013 22.0778 18.3242 22.0644 18.3464C22.0518 18.3693 22.0376 18.3914 22.0241 18.4135C21.9957 18.4569 21.9665 18.5004 21.9357 18.5422C21.9041 18.5849 21.8717 18.626 21.8385 18.6655C21.8211 18.686 21.8038 18.7057 21.7864 18.7247C21.769 18.7445 21.7508 18.7634 21.7327 18.7824C21.6963 18.8203 21.6584 18.8574 21.6189 18.8922C21.6039 18.9064 21.5881 18.9198 21.5723 18.9332C21.5628 18.9411 21.5534 18.949 21.5439 18.9569C21.5249 18.9735 21.5052 18.9893 21.4846 19.0043C21.4649 19.0201 21.4451 19.0351 21.4238 19.0493C21.3843 19.0786 21.3433 19.1062 21.3014 19.1323C21.2785 19.1465 21.2556 19.1607 21.2319 19.1741L13.0424 23.9024C12.3315 24.3123 11.4563 24.3123 10.7462 23.9024L7.75098 22.1733L18.1482 16.077L22.2959 13.6442L22.3796 13.5952Z" fill="#0265DC"/>
<path d="M5.52567 4.02576V20.8897L3.43011 19.6804L2.55492 19.1749C1.84482 18.7642 1.40723 18.0067 1.40723 17.186V7.72951C1.40723 6.90882 1.84482 6.15054 2.55492 5.74059L5.52567 4.02576Z" fill="#0265DC"/>
</g>
</g>
<defs>
<linearGradient id="paint0_linear_4562_3654" x1="21.7472" y1="16.2661" x2="13.335" y2="10.4999" gradientUnits="userSpaceOnUse">
<stop stop-color="#0265DC"/>
<stop offset="1" stop-color="#0265DC" stop-opacity="0"/>
</linearGradient>
<linearGradient id="paint1_linear_4562_3654" x1="20.3635" y1="8.28738" x2="12.7411" y2="3.35062" gradientUnits="userSpaceOnUse">
<stop stop-color="#0265DC"/>
<stop offset="1" stop-color="#0265DC" stop-opacity="0"/>
</linearGradient>
<clipPath id="clip0_4562_3654">
<rect width="24" height="24" fill="white" transform="translate(0 0.243286)"/>
</clipPath>
<clipPath id="clip1_4562_3654">
<rect width="21.1846" height="23.5385" fill="white" transform="translate(1.40723 0.704834)"/>
</clipPath>
</defs>
</svg>
