<svg width="188" height="42" viewBox="0 0 188 42" fill="none" xmlns="http://www.w3.org/2000/svg">
<g clip-path="url(#clip0_6451_689)">
<path d="M35.6376 23.0674V29.007C35.6376 29.0755 35.6363 29.144 35.6322 29.2124C35.6309 29.2258 35.6309 29.2406 35.6295 29.254C35.6269 29.2943 35.6242 29.3346 35.6201 29.3762C35.6161 29.4164 35.6121 29.4567 35.6067 29.497C35.6027 29.5359 35.596 29.5748 35.5906 29.6124C35.5812 29.6701 35.5718 29.7265 35.5597 29.7842C35.553 29.8205 35.545 29.8554 35.5369 29.8916C35.5289 29.9225 35.5208 29.9547 35.5128 29.9869C35.5061 30.0164 35.498 30.0446 35.4886 30.0742C35.4524 30.2044 35.4081 30.3332 35.3571 30.4594C35.3463 30.4862 35.3356 30.5144 35.3235 30.5413C35.2926 30.6151 35.2591 30.6876 35.2228 30.7587C35.2054 30.795 35.1866 30.8299 35.1678 30.8648L35.1665 30.8634L28.447 27.1238L17.9235 21.2661L25.8376 17.6232L35.4953 22.9896L35.6376 23.0674Z" fill="url(#paint0_linear_6451_689)"/>
<path d="M35.5195 11.9829L33.4712 13.5614L31.6578 16.4124L14.4162 6.81513L20.9678 2.21379L24.9276 4.50104H24.9289L32.1853 8.6903L33.6873 9.55741C34.6121 10.0916 35.2645 10.9722 35.5195 11.9829Z" fill="url(#paint1_linear_6451_689)"/>
<path d="M24.9275 4.50101L0 18.7815V12.9373C0 11.5426 0.743624 10.254 1.95034 9.55738L15.8685 1.52248C17.0752 0.825839 18.5624 0.825839 19.7705 1.52248L24.9275 4.50101Z" fill="#0265DC"/>
<path d="M35.6376 12.9373V14.9655L3.43758 33.246L1.95034 32.3869C0.743624 31.689 0 30.4017 0 29.0071V26.9829L32.1852 8.69029L33.6872 9.55741C34.894 10.2541 35.6376 11.5426 35.6376 12.9373Z" fill="#0265DC"/>
<path d="M35.6376 22.9064V29.007C35.6376 29.0755 35.6363 29.1439 35.6323 29.2124C35.6309 29.2258 35.6309 29.2406 35.6296 29.254C35.6269 29.2943 35.6242 29.3345 35.6202 29.3762C35.6161 29.4164 35.6121 29.4567 35.6068 29.497C35.6027 29.5359 35.596 29.5748 35.5906 29.6124C35.5812 29.6701 35.5719 29.7265 35.5598 29.7842C35.5531 29.8205 35.545 29.8554 35.537 29.8916C35.5289 29.9225 35.5208 29.9547 35.5128 29.9869C35.5061 30.0164 35.498 30.0446 35.4886 30.0741C35.4524 30.2043 35.4081 30.3332 35.3571 30.4594C35.3463 30.4862 35.3356 30.5144 35.3235 30.5413C35.2927 30.6151 35.2591 30.6876 35.2229 30.7587C35.2054 30.7949 35.1866 30.8298 35.1678 30.8647C35.1463 30.9037 35.1249 30.9426 35.1021 30.9802C35.0806 31.0191 35.0564 31.0567 35.0336 31.0943C34.9853 31.1681 34.9356 31.2419 34.8833 31.3131C34.8296 31.3856 34.7745 31.4553 34.7182 31.5225C34.6886 31.5574 34.6591 31.5909 34.6296 31.6231C34.6 31.6567 34.5692 31.6889 34.5383 31.7211C34.4765 31.7856 34.4121 31.8486 34.345 31.9077C34.3195 31.9319 34.2927 31.9547 34.2658 31.9775C34.2497 31.9909 34.2336 32.0043 34.2175 32.0178C34.1853 32.046 34.1517 32.0728 34.1168 32.0983C34.0833 32.1251 34.0497 32.1507 34.0135 32.1748C33.9463 32.2245 33.8766 32.2715 33.8054 32.3158C33.7665 32.3399 33.7276 32.3641 33.6873 32.3869L19.7705 40.4218C18.5625 41.1184 17.0752 41.1184 15.8685 40.4218L10.7786 37.4835L28.447 27.1238L35.4953 22.9896L35.6376 22.9064Z" fill="#0265DC"/>
<path d="M6.99866 6.64331V35.301L3.43758 33.246L1.95034 32.3869C0.743624 31.6889 0 30.4017 0 29.0071V12.9373C0 11.5426 0.743624 10.254 1.95034 9.5574L6.99866 6.64331Z" fill="#0265DC"/>
</g>
<path d="M71.072 26.528C71.072 28.2347 70.5387 29.5253 69.472 30.4C68.4267 31.2747 66.5707 31.712 63.904 31.712H53.92V11.456H55.168H63.584C65.3547 11.456 66.7307 11.648 67.712 12.032C68.7147 12.3947 69.4187 12.9387 69.824 13.664C70.2293 14.3893 70.432 15.296 70.432 16.384C70.432 17.8773 70.0693 19.04 69.344 19.872C68.64 20.6827 67.3067 21.1733 65.344 21.344V21.44C66.7947 21.5467 67.936 21.792 68.768 22.176C69.6 22.5387 70.1867 23.072 70.528 23.776C70.8907 24.48 71.072 25.3973 71.072 26.528ZM62.176 15.488H59.04V19.456H62.176C63.2213 19.456 63.9787 19.328 64.448 19.072C64.9173 18.7947 65.152 18.2613 65.152 17.472C65.152 16.704 64.9173 16.1813 64.448 15.904C63.9787 15.6267 63.2213 15.488 62.176 15.488ZM62.816 23.648H59.04V27.712H62.816C63.8613 27.712 64.6187 27.5733 65.088 27.296C65.5573 26.9973 65.792 26.4533 65.792 25.664C65.792 24.8533 65.5573 24.32 65.088 24.064C64.6187 23.7867 63.8613 23.648 62.816 23.648ZM79.0713 31.712H73.9513V11.456H79.0713V31.712ZM96.04 11.456H101.16V31.712H96.072L90.312 23.136C89.864 22.4533 89.4907 21.8773 89.192 21.408C88.8933 20.9387 88.616 20.4693 88.36 20C88.104 19.5307 87.816 18.976 87.496 18.336L87.4 18.464C87.6987 19.488 87.88 20.448 87.944 21.344C88.008 22.2187 88.04 23.072 88.04 23.904V31.712H82.92V11.456H88.008L93.768 20.032C94.216 20.6933 94.5893 21.2693 94.888 21.76C95.1867 22.2293 95.464 22.6987 95.72 23.168C95.976 23.6373 96.264 24.192 96.584 24.832L96.68 24.704C96.4667 23.808 96.3067 22.944 96.2 22.112C96.0933 21.2587 96.04 20.416 96.04 19.584V11.456ZM123.574 31.616V31.712H118.134C117.984 31.2 117.803 30.6133 117.59 29.952C117.398 29.2907 117.184 28.5867 116.95 27.84H110.038C109.611 29.3333 109.216 30.624 108.854 31.712H103.414V31.648L109.974 11.456H117.014L123.574 31.616ZM113.43 15.104C113.216 16.192 112.907 17.5147 112.502 19.072C112.096 20.6293 111.67 22.2187 111.222 23.84H115.798C115.328 22.2187 114.891 20.6293 114.486 19.072C114.08 17.5147 113.771 16.192 113.558 15.104H113.43ZM142.978 26.528C142.978 28.2347 142.445 29.5253 141.378 30.4C140.333 31.2747 138.477 31.712 135.81 31.712H125.826V11.456H127.074H135.49C137.261 11.456 138.637 11.648 139.618 12.032C140.621 12.3947 141.325 12.9387 141.73 13.664C142.136 14.3893 142.338 15.296 142.338 16.384C142.338 17.8773 141.976 19.04 141.25 19.872C140.546 20.6827 139.213 21.1733 137.25 21.344V21.44C138.701 21.5467 139.842 21.792 140.674 22.176C141.506 22.5387 142.093 23.072 142.434 23.776C142.797 24.48 142.978 25.3973 142.978 26.528ZM134.082 15.488H130.946V19.456H134.082C135.128 19.456 135.885 19.328 136.354 19.072C136.824 18.7947 137.058 18.2613 137.058 17.472C137.058 16.704 136.824 16.1813 136.354 15.904C135.885 15.6267 135.128 15.488 134.082 15.488ZM134.722 23.648H130.946V27.712H134.722C135.768 27.712 136.525 27.5733 136.994 27.296C137.464 26.9973 137.698 26.4533 137.698 25.664C137.698 24.8533 137.464 24.32 136.994 24.064C136.525 23.7867 135.768 23.648 134.722 23.648ZM145.218 21.568C145.218 18.9867 145.506 16.9387 146.082 15.424C146.679 13.9093 147.692 12.8213 149.122 12.16C150.572 11.4987 152.588 11.168 155.17 11.168C157.111 11.168 158.722 11.3493 160.002 11.712C161.282 12.0747 162.295 12.6613 163.042 13.472C163.788 14.2827 164.311 15.36 164.61 16.704C164.93 18.0267 165.09 19.648 165.09 21.568C165.09 23.5093 164.93 25.152 164.61 26.496C164.311 27.8187 163.788 28.8853 163.042 29.696C162.295 30.5067 161.282 31.0933 160.002 31.456C158.722 31.8187 157.111 32 155.17 32C153.228 32 151.618 31.8187 150.338 31.456C149.058 31.0933 148.044 30.5067 147.298 29.696C146.551 28.8853 146.018 27.8187 145.698 26.496C145.378 25.152 145.218 23.5093 145.218 21.568ZM155.17 27.52C156.535 27.52 157.559 27.3493 158.242 27.008C158.924 26.6667 159.383 26.0693 159.618 25.216C159.852 24.3413 159.97 23.1253 159.97 21.568C159.97 20.032 159.852 18.8373 159.618 17.984C159.383 17.1307 158.924 16.5333 158.242 16.192C157.559 15.8293 156.535 15.648 155.17 15.648C153.826 15.648 152.802 15.8293 152.098 16.192C151.415 16.5333 150.946 17.1307 150.69 17.984C150.455 18.8373 150.338 20.032 150.338 21.568C150.338 23.1253 150.455 24.3413 150.69 25.216C150.946 26.0693 151.415 26.6667 152.098 27.008C152.802 27.3493 153.826 27.52 155.17 27.52ZM181.351 21.376L187.271 31.712H180.871L177.191 24.544H177.095L173.415 31.712H167.015L172.935 21.376V21.216L167.399 11.456H173.703L177.095 18.496H177.191L180.583 11.456H186.887L181.351 21.216V21.376Z" fill="white"/>
<defs>
<linearGradient id="paint0_linear_6451_689" x1="34.5638" y1="27.4433" x2="20.2685" y2="17.6446" gradientUnits="userSpaceOnUse">
<stop stop-color="#0265DC"/>
<stop offset="1" stop-color="#0265DC" stop-opacity="0"/>
</linearGradient>
<linearGradient id="paint1_linear_6451_689" x1="32.2148" y1="13.8863" x2="19.2618" y2="5.49701" gradientUnits="userSpaceOnUse">
<stop stop-color="#0265DC"/>
<stop offset="1" stop-color="#0265DC" stop-opacity="0"/>
</linearGradient>
<clipPath id="clip0_6451_689">
<rect width="36" height="40" fill="white" transform="translate(0 1)"/>
</clipPath>
</defs>
</svg>
