<svg width="49" height="48" viewBox="0 0 49 48" fill="none" xmlns="http://www.w3.org/2000/svg">
<path d="M15.554 16.9008C17.178 20.2833 19.3918 23.4534 22.1955 26.2571C24.9992 29.0608 28.1693 31.2746 31.5518 32.8986C31.8427 33.0383 31.9882 33.1081 32.1723 33.1618C32.8264 33.3525 33.6297 33.2155 34.1837 32.8188C34.3396 32.7072 34.473 32.5738 34.7397 32.3071C35.5555 31.4914 35.9633 31.0835 36.3735 30.8168C37.9202 29.8112 39.9142 29.8112 41.461 30.8168C41.8711 31.0835 42.279 31.4914 43.0948 32.3071L43.5494 32.7618C44.7895 34.0018 45.4095 34.6219 45.7463 35.2877C46.4161 36.6121 46.4161 38.176 45.7463 39.5003C45.4095 40.1662 44.7895 40.7862 43.5494 42.0263L43.1816 42.3941C41.9458 43.6299 41.328 44.2477 40.4879 44.7197C39.5557 45.2433 38.1079 45.6198 37.0387 45.6166C36.0752 45.6138 35.4166 45.4269 34.0996 45.053C27.0217 43.0441 20.3428 39.2537 14.7709 33.6817C9.19892 28.1098 5.40848 21.4309 3.39955 14.353C3.02573 13.036 2.83882 12.3774 2.83596 11.4139C2.83278 10.3447 3.20929 8.89689 3.73293 7.96471C4.20485 7.12464 4.82274 6.50675 6.05853 5.27096L6.42634 4.90314C7.66637 3.66311 8.28639 3.0431 8.95228 2.70629C10.2766 2.03646 11.8405 2.03646 13.1648 2.70629C13.8307 3.04309 14.4508 3.66311 15.6908 4.90314L16.1455 5.35784C16.9612 6.17359 17.3691 6.58146 17.6358 6.99161C18.6414 8.53835 18.6414 10.5324 17.6358 12.0791C17.3691 12.4893 16.9612 12.8971 16.1455 13.7129C15.8788 13.9796 15.7454 14.113 15.6338 14.2689C15.2371 14.8229 15.1001 15.6262 15.2908 16.2803C15.3444 16.4644 15.4143 16.6099 15.554 16.9008Z" stroke="#F8F7FF" stroke-width="4" stroke-linecap="round" stroke-linejoin="round"/>
</svg>
