<svg width="16" height="17" viewBox="0 0 16 17" fill="none" xmlns="http://www.w3.org/2000/svg">
<path d="M8.66634 2.24308L9.82246 5.24899C10.0105 5.73781 10.1045 5.98222 10.2507 6.18781C10.3802 6.37001 10.5394 6.52921 10.7216 6.65877C10.9272 6.80495 11.1716 6.89896 11.6604 7.08696L14.6663 8.24308L11.6604 9.3992C11.1716 9.58721 10.9272 9.68121 10.7216 9.8274C10.5394 9.95696 10.3802 10.1162 10.2507 10.2984C10.1045 10.5039 10.0105 10.7484 9.82246 11.2372L8.66634 14.2431L7.51022 11.2372C7.32222 10.7484 7.22821 10.5039 7.08203 10.2984C6.95247 10.1162 6.79327 9.95696 6.61107 9.8274C6.40548 9.68121 6.16107 9.58721 5.67225 9.3992L2.66634 8.24308L5.67225 7.08696C6.16107 6.89896 6.40548 6.80495 6.61106 6.65877C6.79327 6.52921 6.95247 6.37001 7.08203 6.18781C7.22821 5.98222 7.32222 5.73781 7.51022 5.24899L8.66634 2.24308Z" fill="#F8D904"/>
<path d="M2.99967 14.9097V11.5764M2.99967 4.90975V1.57642M1.33301 3.24308H4.66634M1.33301 13.2431H4.66634M8.66634 2.24308L7.51022 5.24899C7.32222 5.73781 7.22821 5.98222 7.08203 6.18781C6.95247 6.37001 6.79327 6.52921 6.61107 6.65877C6.40548 6.80495 6.16107 6.89896 5.67225 7.08696L2.66634 8.24308L5.67225 9.3992C6.16107 9.58721 6.40548 9.68121 6.61107 9.8274C6.79327 9.95696 6.95247 10.1162 7.08203 10.2984C7.22821 10.5039 7.32222 10.7484 7.51022 11.2372L8.66634 14.2431L9.82246 11.2372C10.0105 10.7484 10.1045 10.5039 10.2507 10.2984C10.3802 10.1162 10.5394 9.95696 10.7216 9.8274C10.9272 9.68121 11.1716 9.58721 11.6604 9.3992L14.6663 8.24308L11.6604 7.08696C11.1716 6.89896 10.9272 6.80495 10.7216 6.65877C10.5394 6.52921 10.3802 6.37001 10.2507 6.18781C10.1045 5.98222 10.0105 5.73781 9.82246 5.24899L8.66634 2.24308Z" stroke="#F8D904" stroke-linecap="round" stroke-linejoin="round"/>
</svg>
