<svg width="24" height="24" viewBox="0 0 24 24" fill="none" xmlns="http://www.w3.org/2000/svg">
<path d="M19.033 2.76904H4.96709C3.75522 2.76904 2.76929 3.75498 2.76929 4.96685V19.0328C2.76929 20.2446 3.75522 21.2306 4.96709 21.2306H19.033C20.2449 21.2306 21.2308 20.2446 21.2308 19.0328V4.96685C21.2308 3.75498 20.2449 2.76904 19.033 2.76904ZM17.2774 10.8231C17.1776 10.8323 17.0765 10.8385 16.9741 10.8385C15.8212 10.8385 14.808 10.2455 14.2185 9.34926C14.2185 11.7005 14.2185 14.3756 14.2185 14.4205C14.2185 16.4904 12.5403 18.1686 10.4704 18.1686C8.4005 18.1686 6.72225 16.4904 6.72225 14.4205C6.72225 12.3506 8.4005 10.6723 10.4704 10.6723C10.5486 10.6723 10.6251 10.6794 10.702 10.6842V12.5312C10.6251 12.522 10.5495 12.5079 10.4704 12.5079C9.41368 12.5079 8.55742 13.3642 8.55742 14.4209C8.55742 15.4776 9.41368 16.3339 10.4704 16.3339C11.5271 16.3339 12.4603 15.5014 12.4603 14.4446C12.4603 14.4029 12.4787 5.8319 12.4787 5.8319H14.244C14.4102 7.41036 15.6845 8.65608 17.2774 8.77036V10.8231Z" fill="#F5F8FB"/>
</svg>
